<svg xmlns="http://www.w3.org/2000/svg" width="880" height="650" viewBox="0 0 880 650">
<rect width="100%" height="100%" fill="white"/>
<line x1="440.000" y1="109.375" x2="440.000" y2="454.375" stroke="#20252b" stroke-width="3"/>
<line x1="440.000" y1="454.375" x2="785.000" y2="454.375" stroke="#20252b" stroke-width="3"/>
<line x1="440.000" y1="109.375" x2="785.000" y2="454.375" stroke="#20252b" stroke-width="3"/>
<line x1="440.000" y1="109.375" x2="353.750" y2="368.125" stroke="#20252b" stroke-width="3"/>
<line x1="440.000" y1="109.375" x2="698.750" y2="195.625" stroke="#20252b" stroke-width="3"/>
<line x1="353.750" y1="368.125" x2="698.750" y2="195.625" stroke="#20252b" stroke-width="3"/>
<line x1="353.750" y1="368.125" x2="526.250" y2="540.625" stroke="#20252b" stroke-width="3"/>
<line x1="785.000" y1="454.375" x2="526.250" y2="540.625" stroke="#20252b" stroke-width="3"/>
<line x1="785.000" y1="454.375" x2="698.750" y2="195.625" stroke="#20252b" stroke-width="3"/>
<line x1="440.000" y1="454.375" x2="95.000" y2="454.375" stroke="#326b9c" stroke-width="3" stroke-dasharray="10 7"/>
<line x1="95.000" y1="454.375" x2="440.000" y2="109.375" stroke="#326b9c" stroke-width="3" stroke-dasharray="10 7"/>
<line x1="95.000" y1="454.375" x2="353.750" y2="368.125" stroke="#326b9c" stroke-width="3" stroke-dasharray="10 7"/>
<line x1="434.624" y1="125.503" x2="450.752" y2="130.878" stroke="#8e969e" stroke-width="2"/>
<line x1="450.752" y1="130.878" x2="456.128" y2="114.751" stroke="#8e969e" stroke-width="2"/>
<line x1="440.000" y1="437.375" x2="457.000" y2="437.375" stroke="#8e969e" stroke-width="2"/>
<line x1="457.000" y1="437.375" x2="457.000" y2="454.375" stroke="#8e969e" stroke-width="2"/>
<line x1="427.979" y1="121.396" x2="440.000" y2="133.417" stroke="#8e969e" stroke-width="2"/>
<line x1="440.000" y1="133.417" x2="452.021" y2="121.396" stroke="#8e969e" stroke-width="2"/>
<line x1="386.914" y1="235.430" x2="406.836" y2="242.070" stroke="#20252b" stroke-width="2"/>
<line x1="566.055" y1="162.461" x2="572.695" y2="142.539" stroke="#20252b" stroke-width="2"/>
<line x1="429.500" y1="278.375" x2="450.500" y2="278.375" stroke="#20252b" stroke-width="2"/>
<line x1="429.500" y1="285.375" x2="450.500" y2="285.375" stroke="#20252b" stroke-width="2"/>
<line x1="609.000" y1="464.875" x2="609.000" y2="443.875" stroke="#20252b" stroke-width="2"/>
<line x1="616.000" y1="464.875" x2="616.000" y2="443.875" stroke="#20252b" stroke-width="2"/>
<line x1="384.501" y1="413.725" x2="399.350" y2="398.876" stroke="#20252b" stroke-width="2"/>
<line x1="389.450" y1="418.675" x2="404.300" y2="403.825" stroke="#20252b" stroke-width="2"/>
<line x1="394.400" y1="423.624" x2="409.249" y2="408.775" stroke="#20252b" stroke-width="2"/>
<line x1="470.751" y1="499.975" x2="485.600" y2="485.126" stroke="#20252b" stroke-width="2"/>
<line x1="475.700" y1="504.925" x2="490.550" y2="490.075" stroke="#20252b" stroke-width="2"/>
<line x1="480.650" y1="509.874" x2="495.499" y2="495.025" stroke="#20252b" stroke-width="2"/>
<text x="428.000" y="98.375" font-family="Arial, sans-serif" font-size="30" font-style="italic" fill="#20252b">A</text>
<text x="406.000" y="475.375" font-family="Arial, sans-serif" font-size="30" font-style="italic" fill="#20252b">B</text>
<text x="798.000" y="474.375" font-family="Arial, sans-serif" font-size="30" font-style="italic" fill="#20252b">C</text>
<text x="313.750" y="379.125" font-family="Arial, sans-serif" font-size="30" font-style="italic" fill="#20252b">D</text>
<text x="710.750" y="202.625" font-family="Arial, sans-serif" font-size="30" font-style="italic" fill="#20252b">E</text>
<text x="513.250" y="580.625" font-family="Arial, sans-serif" font-size="30" font-style="italic" fill="#20252b">F</text>
<text x="59.000" y="470.375" font-family="Arial, sans-serif" font-size="30" font-style="italic" fill="#20252b">G</text>
</svg>